<?xml version="1.0" encoding="UTF-8" standalone="no"?>
<svg
   xmlns:dc="http://purl.org/dc/elements/1.1/"
   xmlns:cc="http://creativecommons.org/ns#"
   xmlns:rdf="http://www.w3.org/1999/02/22-rdf-syntax-ns#"
   xmlns:svg="http://www.w3.org/2000/svg"
   xmlns="http://www.w3.org/2000/svg"
   xmlns:sodipodi="http://sodipodi.sourceforge.net/DTD/sodipodi-0.dtd"
   xmlns:inkscape="http://www.inkscape.org/namespaces/inkscape"
   enable-background="new 0 0 64 64"
   height="64px"
   id="SHUFFLE"
   version="1.1"
   viewBox="0 0 64 64"
   width="64px"
   xml:space="preserve"
   inkscape:version="0.91 r13725"
   sodipodi:docname="shuffle.svg"><metadata
     id="metadata13"><rdf:RDF><cc:Work
         rdf:about=""><dc:format>image/svg+xml</dc:format><dc:type
           rdf:resource="http://purl.org/dc/dcmitype/StillImage" /><dc:title></dc:title></cc:Work></rdf:RDF></metadata><defs
     id="defs11" /><sodipodi:namedview
     pagecolor="#ffffff"
     bordercolor="#666666"
     borderopacity="1"
     objecttolerance="10"
     gridtolerance="10"
     guidetolerance="10"
     inkscape:pageopacity="0"
     inkscape:pageshadow="2"
     inkscape:window-width="1280"
     inkscape:window-height="731"
     id="namedview9"
     showgrid="false"
     inkscape:zoom="3.6875"
     inkscape:cx="-4.7457627"
     inkscape:cy="32"
     inkscape:window-x="0"
     inkscape:window-y="0"
     inkscape:window-maximized="1"
     inkscape:current-layer="SHUFFLE" /><path
     d="M49.6,20.898l-4.33-4c-0.607-0.563-1.557-0.525-2.119,0.084c-0.563,0.607-0.523,1.557,0.084,2.119l1.531,1.415  c-7.633,0.16-13.879,1.735-15.336,12.787C28.273,42.083,24.352,43.5,15.417,43.5c-0.829,0-1.5,0.672-1.5,1.5s0.671,1.5,1.5,1.5  c8.372,0,15.428-0.964,16.987-12.804c1.08-8.203,4.578-9.978,12.32-10.175l-1.49,1.377c-0.607,0.562-0.646,1.512-0.084,2.119  c0.563,0.609,1.512,0.646,2.119,0.084l4.33-4c0.309-0.283,0.482-0.684,0.482-1.102S49.908,21.182,49.6,20.898z"
     id="path5"
     style="fill:#ffffff;fill-opacity:1" /><path
     d="M13.917,20c0-0.828,0.671-1.5,1.5-1.5c5.97,0,11.271,0.494,14.386,5.07c-0.642,0.881-1.213,1.891-1.705,3.041  c-1.98-4.277-5.872-5.111-12.681-5.111C14.589,21.5,13.917,20.828,13.917,20z M45.27,37.898c-0.607-0.563-1.557-0.525-2.119,0.084  c-0.563,0.607-0.523,1.558,0.084,2.119l1.49,1.377c-4.947-0.126-8.155-0.905-10.112-3.585c-0.329,1.173-0.727,2.227-1.18,3.175  c2.838,2.719,6.841,3.32,11.333,3.415l-1.531,1.415c-0.607,0.563-0.646,1.512-0.084,2.119c0.563,0.609,1.512,0.646,2.119,0.084  l4.33-4c0.309-0.283,0.482-0.684,0.482-1.102s-0.174-0.818-0.482-1.102L45.27,37.898z"
     id="path7"
     style="fill:#ffffff;fill-opacity:1" /></svg>