<?xml version="1.0" encoding="UTF-8" standalone="no"?>
<svg
   xmlns:dc="http://purl.org/dc/elements/1.1/"
   xmlns:cc="http://creativecommons.org/ns#"
   xmlns:rdf="http://www.w3.org/1999/02/22-rdf-syntax-ns#"
   xmlns:svg="http://www.w3.org/2000/svg"
   xmlns="http://www.w3.org/2000/svg"
   xmlns:sodipodi="http://sodipodi.sourceforge.net/DTD/sodipodi-0.dtd"
   xmlns:inkscape="http://www.inkscape.org/namespaces/inkscape"
   width="512pt"
   height="512pt"
   viewBox="0 0 512 512"
   version="1.1"
   id="svg3412"
   inkscape:version="0.91 r13725"
   sodipodi:docname="linux2.svg">
  <metadata
     id="metadata3423">
    <rdf:RDF>
      <cc:Work
         rdf:about="">
        <dc:format>image/svg+xml</dc:format>
        <dc:type
           rdf:resource="http://purl.org/dc/dcmitype/StillImage" />
        <dc:title></dc:title>
      </cc:Work>
    </rdf:RDF>
  </metadata>
  <defs
     id="defs3421" />
  <sodipodi:namedview
     pagecolor="#ffffff"
     bordercolor="#666666"
     borderopacity="1"
     objecttolerance="10"
     gridtolerance="10"
     guidetolerance="10"
     inkscape:pageopacity="0"
     inkscape:pageshadow="2"
     inkscape:window-width="1280"
     inkscape:window-height="731"
     id="namedview3419"
     showgrid="false"
     inkscape:zoom="0.36875"
     inkscape:cx="-44.745763"
     inkscape:cy="320"
     inkscape:window-x="0"
     inkscape:window-y="0"
     inkscape:window-maximized="1"
     inkscape:current-layer="svg3412" />
  <g
     id="surface50278"
     style="fill:#ffffff;fill-opacity:1">
    <path
       style="stroke:none;fill-rule:nonzero;fill:#ffffff;fill-opacity:1"
       d="M 249.933594 180.078125 C 241.898438 180 235.203125 173.113281 235.375 165.101562 C 235.546875 156.964844 242.316406 150.570312 250.507812 150.804688 C 258.449219 151.03125 264.601562 157.359375 264.628906 165.324219 C 264.65625 173.488281 258.011719 180.15625 249.933594 180.078125 "
       id="path3415" />
    <path
       style="stroke:none;fill-rule:nonzero;fill:#ffffff;fill-opacity:1"
       d="M 357.894531 138.675781 C 338.734375 143.28125 321.675781 141.28125 303.179688 133.335938 C 260.179688 114.855469 217.714844 117.246094 177.574219 143.503906 C 139.71875 168.261719 112.25 201.679688 93.167969 242.363281 C 92.632812 243.503906 92.046875 244.628906 91.277344 246.101562 C 96.414062 160.835938 167.398438 93.035156 253.933594 93.035156 C 296.945312 93.035156 336.109375 109.796875 365.265625 137.113281 C 362.730469 137.597656 360.253906 138.109375 357.894531 138.675781 M 416.894531 256 C 416.894531 301.449219 398.183594 342.605469 368.070312 372.195312 C 361.824219 329.597656 331.867188 280.820312 321.546875 259.207031 C 313.570312 242.503906 307.675781 218.535156 329.410156 190.929688 C 335.421875 183.292969 345.46875 175.890625 353.164062 170.140625 C 361.898438 163.613281 371.339844 158.566406 381.144531 154.269531 C 403.5 182.171875 416.894531 217.546875 416.894531 256 M 230.03125 165.199219 C 230.195312 154.042969 239.1875 145.382812 250.441406 145.53125 C 261.652344 145.683594 270.398438 154.691406 270.183594 165.871094 C 269.96875 177.058594 261.015625 185.6875 249.757812 185.542969 C 238.628906 185.398438 229.863281 176.359375 230.03125 165.199219 M 150.570312 244.117188 C 142.519531 241.921875 133.980469 241.230469 125.605469 240.597656 C 115.617188 239.84375 111.6875 235.433594 116.652344 226.488281 C 124.453125 212.421875 138.085938 191.371094 160.492188 174.726562 C 158.789062 190.929688 181.710938 235.152344 223.613281 237.316406 C 246.59375 238.503906 267.785156 256.734375 269.53125 258.382812 C 298.867188 286.078125 312.5625 313.5625 325.285156 347.144531 C 328.789062 358.488281 334.136719 381.730469 335.921875 393.519531 C 336.082031 394.582031 335.671875 395.996094 334.988281 397.339844 C 311.101562 411.09375 283.417969 418.964844 253.933594 418.964844 C 172.730469 418.964844 105.214844 359.261719 92.960938 281.449219 C 93.824219 279.390625 95.292969 277.503906 97.46875 275.578125 C 115.34375 259.761719 135.433594 261.972656 155.15625 269.285156 C 201.957031 281.378906 234.050781 324.710938 237.679688 327.191406 C 229.5625 303.113281 200.195312 255.984375 150.570312 244.117188 M 432.742188 255.117188 C 432.738281 254.085938 432.726562 253.058594 432.703125 252.03125 C 432.695312 251.667969 432.6875 251.304688 432.675781 250.941406 C 432.640625 249.566406 432.589844 248.195312 432.523438 246.824219 C 432.519531 246.8125 432.519531 246.800781 432.519531 246.789062 C 431.46875 225.796875 426.8125 205.554688 419.117188 187.414062 C 413.257812 173.316406 405.644531 160.132812 396.554688 148.128906 C 405.058594 145.007812 413.691406 142.167969 422.246094 139.1875 C 423.832031 138.632812 433.808594 134.96875 436.890625 133.667969 C 420.972656 132.449219 402.289062 132.628906 384.972656 134.339844 C 352.5 99.378906 306.214844 77.433594 254.792969 77.1875 C 254.558594 77.1875 254.324219 77.179688 254.085938 77.179688 C 254.035156 77.179688 253.984375 77.179688 253.933594 77.179688 C 253.710938 77.179688 253.492188 77.1875 253.269531 77.1875 C 229.152344 77.214844 204.6875 82.113281 181.523438 92.457031 C 180.9375 92.71875 180.347656 92.976562 179.761719 93.246094 C 179.453125 93.386719 179.148438 93.53125 178.839844 93.675781 C 119.503906 121.167969 77.789062 180.230469 75.246094 249.304688 C 75.230469 249.804688 75.207031 250.300781 75.191406 250.800781 C 75.167969 251.550781 75.160156 252.300781 75.148438 253.054688 C 75.132812 253.832031 75.121094 254.609375 75.117188 255.386719 C 75.117188 255.589844 75.109375 255.796875 75.109375 256 C 75.109375 256.449219 75.125 256.898438 75.125 257.347656 C 75.132812 258.179688 75.140625 259.011719 75.160156 259.84375 C 75.171875 260.550781 75.195312 261.253906 75.21875 261.957031 C 75.242188 262.679688 75.269531 263.40625 75.300781 264.132812 C 75.339844 264.996094 75.386719 265.855469 75.4375 266.714844 C 75.46875 267.21875 75.5 267.726562 75.535156 268.230469 C 75.609375 269.339844 75.695312 270.441406 75.789062 271.546875 C 75.808594 271.738281 75.824219 271.933594 75.839844 272.125 C 83.996094 363.328125 160.609375 434.820312 253.933594 434.820312 C 318.96875 434.820312 375.894531 400.097656 407.1875 348.179688 C 407.664062 347.390625 408.125 346.597656 408.589844 345.804688 C 408.757812 345.519531 408.929688 345.238281 409.09375 344.953125 C 417.261719 330.816406 423.175781 315.992188 427.050781 300.960938 C 427.085938 300.820312 427.125 300.683594 427.160156 300.542969 C 427.457031 299.375 427.742188 298.207031 428.015625 297.035156 C 428.082031 296.75 428.152344 296.46875 428.21875 296.179688 C 428.445312 295.179688 428.660156 294.179688 428.871094 293.175781 C 429.449219 290.441406 429.964844 287.683594 430.414062 284.90625 C 430.457031 284.644531 430.503906 284.382812 430.546875 284.121094 C 430.710938 283.078125 430.859375 282.03125 431.007812 280.984375 C 431.046875 280.695312 431.089844 280.40625 431.128906 280.113281 C 431.269531 279.078125 431.398438 278.039062 431.519531 277 C 431.554688 276.699219 431.589844 276.398438 431.621094 276.101562 C 431.738281 275.066406 431.847656 274.027344 431.945312 272.988281 C 431.972656 272.691406 431.996094 272.390625 432.023438 272.09375 C 432.117188 271.042969 432.207031 269.996094 432.285156 268.941406 C 432.296875 268.746094 432.308594 268.550781 432.320312 268.355469 C 432.445312 266.539062 432.539062 264.714844 432.609375 262.886719 C 432.632812 262.277344 432.660156 261.664062 432.675781 261.054688 C 432.695312 260.449219 432.703125 259.84375 432.710938 259.238281 C 432.726562 258.367188 432.742188 257.5 432.746094 256.628906 C 432.746094 256.417969 432.753906 256.210938 432.753906 256 C 432.753906 255.707031 432.742188 255.410156 432.742188 255.117188 "
       id="path3417" />
  </g>
</svg>
